<?xml version="1.0" encoding="UTF-8" standalone="no"?>
<!-- Created with Inkscape (http://www.inkscape.org/) -->

<svg
   xmlns:osb="http://www.openswatchbook.org/uri/2009/osb"
   xmlns:dc="http://purl.org/dc/elements/1.1/"
   xmlns:cc="http://creativecommons.org/ns#"
   xmlns:rdf="http://www.w3.org/1999/02/22-rdf-syntax-ns#"
   xmlns:svg="http://www.w3.org/2000/svg"
   xmlns="http://www.w3.org/2000/svg"
   xmlns:sodipodi="http://sodipodi.sourceforge.net/DTD/sodipodi-0.dtd"
   xmlns:inkscape="http://www.inkscape.org/namespaces/inkscape"
   width="210mm"
   height="297mm"
   viewBox="0 0 210 297"
   version="1.1"
   id="svg8"
   inkscape:version="0.92.3 (2405546, 2018-03-11)"
   sodipodi:docname="rysunek2.svg">
  <defs
     id="defs2">
    <linearGradient
       id="linearGradient952"
       osb:paint="solid">
      <stop
         style="stop-color:#00000a;stop-opacity:1;"
         offset="0"
         id="stop950" />
    </linearGradient>
    <linearGradient
       id="linearGradient946"
       osb:paint="solid">
      <stop
         style="stop-color:#000000;stop-opacity:1;"
         offset="0"
         id="stop944" />
    </linearGradient>
    <linearGradient
       id="linearGradient940"
       osb:paint="solid">
      <stop
         style="stop-color:#000000;stop-opacity:1;"
         offset="0"
         id="stop938" />
    </linearGradient>
  </defs>
  <sodipodi:namedview
     id="base"
     pagecolor="#ffffff"
     bordercolor="#666666"
     borderopacity="1.0"
     inkscape:pageopacity="0.0"
     inkscape:pageshadow="2"
     inkscape:zoom="1.1757812"
     inkscape:cx="426.50977"
     inkscape:cy="284.9217"
     inkscape:document-units="mm"
     inkscape:current-layer="layer1"
     showgrid="false"
     showguides="false"
     inkscape:window-width="1853"
     inkscape:window-height="1021"
     inkscape:window-x="67"
     inkscape:window-y="27"
     inkscape:window-maximized="1" />
  <metadata
     id="metadata5">
    <rdf:RDF>
      <cc:Work
         rdf:about="">
        <dc:format>image/svg+xml</dc:format>
        <dc:type
           rdf:resource="http://purl.org/dc/dcmitype/StillImage" />
        <dc:title></dc:title>
      </cc:Work>
    </rdf:RDF>
  </metadata>
  <g
     inkscape:label="Layer 1"
     inkscape:groupmode="layer"
     id="layer1">
    <path
       style="fill:#c500f1;fill-opacity:1;stroke:none;stroke-width:28.34645653;stroke-miterlimit:4;stroke-dasharray:none;stroke-opacity:1"
       d="M 440.98242,266.00586 A 264.56693,264.56693 0 0 0 176.44727,529.94727 c 26.37932,-20.26766 50.91448,-35.02369 73.59179,-44.22852 25.25385,-10.43491 51.489,-15.65234 78.70703,-15.65234 30.86582,0 66.92393,8.94361 108.17188,26.83203 l 6.3125,2.68359 c 2.24479,0.89442 5.33139,2.08742 9.25976,3.57813 43.49274,18.48469 78.4265,27.72656 104.80274,27.72656 24.13145,0 47.98247,-5.66481 71.55273,-16.99414 21.00698,-9.97847 43.97725,-25.28104 68.90235,-45.89844 A 264.56693,264.56693 0 0 0 440.98242,266.00586 Z"
       transform="scale(0.26458333)"
       id="path936" />
    <path
       style="fill:#c50070;fill-opacity:1;stroke:none;stroke-width:28.34645653;stroke-miterlimit:4;stroke-dasharray:none;stroke-opacity:1"
       d="m 705.01562,541.27148 c -28.33533,22.32512 -54.71057,38.40331 -79.11523,48.19922 -24.97325,10.13677 -51.06907,15.20703 -78.28711,15.20703 -30.86581,0 -66.78265,-8.79644 -107.75,-26.38671 -3.08658,-1.19257 -5.33138,-2.08732 -6.73437,-2.6836 -1.96419,-0.89442 -5.05079,-2.08547 -9.25977,-3.57617 -43.49274,-18.4847 -78.42649,-27.72852 -104.80273,-27.72852 -24.69266,0 -49.10488,5.81394 -73.23633,17.44141 -18.92694,8.88589 -38.89427,21.91747 -59.89258,39.05664 a 264.56693,264.56693 0 0 0 255.04492,194.33984 264.56693,264.56693 0 0 0 264.0332,-253.86914 z"
       transform="scale(0.26458333)"
       id="path815" />
    <g
       aria-label="~"
       transform="matrix(0.97013507,0,0,1.0307843,-1.1251384,2.9253599)"
       style="font-style:normal;font-weight:normal;font-size:235.09127808px;line-height:1.25;font-family:sans-serif;letter-spacing:0px;word-spacing:0px;fill:none;fill-opacity:1;stroke:#00000a;stroke-width:1.60000002;stroke-miterlimit:4;stroke-dasharray:none;stroke-opacity:1"
       id="text872-3">
      <path
         d="m 194.66133,230.18646 c -8.03535,6.04564 -15.49674,10.36942 -22.38418,12.97134 -6.81091,2.60192 -13.92793,3.90288 -21.35106,3.90288 -8.41799,0 -18.21346,-2.25755 -29.38641,-6.77265 -0.8418,-0.30611 -1.45402,-0.53569 -1.83665,-0.68874 -0.53569,-0.22958 -1.37749,-0.53569 -2.5254,-0.91833 -11.8617,-4.74468 -21.389326,-7.11702 -28.582875,-7.11702 -6.734385,0 -13.392244,1.49228 -19.973575,4.47684 -6.581331,2.90803 -13.621825,7.53792 -21.121482,13.88967"
         style="fill:none;fill-opacity:1;stroke:#00000a;stroke-width:1.60000002;stroke-miterlimit:4;stroke-dasharray:none;stroke-opacity:1"
         id="path956"
         inkscape:connector-curvature="0"
         sodipodi:nodetypes="ccscccscc" />
    </g>
    <path
       style="font-style:normal;font-weight:normal;font-size:10.58333302px;line-height:1.25;font-family:sans-serif;letter-spacing:0px;word-spacing:0px;fill:#000000;fill-opacity:1;stroke:#00000a;stroke-width:0.44713807;stroke-opacity:1"
       d="m 73.335909,236.97749 v 2.26221 h 1.445385 v -2.26221 z m 29.693241,0 v 2.26221 h 1.44539 v -2.26221 z m 14.3046,0 v 15.10731 h 1.45324 v -5.31085 l 4.4697,5.31085 h 1.88528 l -4.86247,-5.7866 4.66608,-5.08755 h -1.846 l -4.31259,4.68948 v -8.92264 z m 34.61855,0 v 15.10731 h 1.44539 v -15.10731 z m -99.904403,3.97101 c -0.633666,0 -1.180922,0.15858 -1.641769,0.47575 -0.460846,0.31716 -0.856236,0.80908 -1.18616,1.47577 v -1.68937 h -1.453239 v 10.87415 h 1.453239 v -6.14584 c 0,-1.05504 0.217334,-1.89003 0.651998,-2.50493 0.434659,-0.62139 1.021195,-0.93208 1.759599,-0.93208 0.623188,0 1.084039,0.25243 1.382542,0.75732 0.298501,0.49838 0.447756,1.27187 0.447756,2.32046 v 6.50507 h 1.453239 v -6.14584 c 0,-1.06153 0.21733,-1.89974 0.651993,-2.51464 0.434664,-0.61492 1.026437,-0.92237 1.775309,-0.92237 0.61272,0 1.068329,0.25243 1.366833,0.75732 0.298505,0.50486 0.447755,1.27835 0.447755,2.32046 v 6.50507 h 1.45324 v -6.56332 c 0,-1.46284 -0.248753,-2.5891 -0.746255,-3.37876 -0.497506,-0.79614 -1.204491,-1.19422 -2.120946,-1.19422 -0.680799,0 -1.272567,0.19094 -1.77531,0.57284 -0.502743,0.38188 -0.934788,0.97414 -1.296135,1.77675 -0.214712,-0.76378 -0.547258,-1.34632 -0.997631,-1.74763 -0.445136,-0.4013 -0.987157,-0.60196 -1.626058,-0.60196 z m 14.862333,0 c -1.262093,0 -2.251869,0.50487 -2.969327,1.51462 -0.712217,1.00973 -1.068329,2.40785 -1.068329,4.19431 0,1.78 0.356112,3.1781 1.068329,4.19433 0.717458,1.00973 1.707234,1.5146 2.969327,1.5146 1.256857,0 2.24401,-0.50487 2.961468,-1.5146 0.717454,-1.01623 1.076183,-2.41433 1.076183,-4.19433 0,-1.78646 -0.358729,-3.18458 -1.076183,-4.19431 -0.717458,-1.00975 -1.704611,-1.51462 -2.961468,-1.51462 z m 14.571684,0 c -1.3197,0 -2.3697,0.52429 -3.150001,1.57287 -0.77506,1.04211 -1.162591,2.45316 -1.162591,4.23315 0,1.72174 0.408477,3.08749 1.225433,4.09724 0.822199,1.00973 1.935038,1.5146 3.338531,1.5146 0.560344,0 1.112838,-0.0712 1.657477,-0.21359 0.54464,-0.1424 1.076183,-0.34953 1.594636,-0.62138 v -1.68938 c -0.513216,0.33658 -1.031668,0.58902 -1.555358,0.7573 -0.518456,0.16829 -1.055236,0.25245 -1.610349,0.25245 -0.958351,0 -1.707229,-0.32041 -2.246632,-0.96121 -0.534162,-0.64727 -0.832667,-1.58581 -0.895509,-2.81563 h 6.64563 v -0.87382 c 0,-1.61817 -0.345637,-2.89654 -1.036908,-3.83508 -0.686035,-0.94501 -1.620822,-1.41752 -2.804359,-1.41752 z m 15.545745,0 c -0.644138,0 -1.19925,0.15858 -1.665336,0.47575 -0.460847,0.31068 -0.843141,0.78966 -1.146881,1.43694 v -1.65054 h -1.453241 v 15.01022 h 1.453241 v -5.7672 c 0.30374,0.64728 0.686034,1.1295 1.146881,1.44667 0.466086,0.31069 1.021198,0.46602 1.665336,0.46602 1.068331,0 1.935033,-0.52428 2.600123,-1.57286 0.670328,-1.04858 1.005478,-2.42728 1.005478,-4.13607 0,-1.70879 -0.33515,-3.08748 -1.005478,-4.13606 -0.66509,-1.04858 -1.531792,-1.57287 -2.600123,-1.57287 z m 14.147491,0 c -1.31969,0 -2.3697,0.52429 -3.15,1.57287 -0.77505,1.04211 -1.16259,2.45316 -1.16259,4.23315 0,1.72174 0.40848,3.08749 1.22544,4.09724 0.82219,1.00973 1.93503,1.5146 3.33853,1.5146 0.56034,0 1.11284,-0.0712 1.65747,-0.21359 0.54464,-0.1424 1.07619,-0.34953 1.59464,-0.62138 v -1.68938 c -0.51322,0.33658 -1.03167,0.58902 -1.55536,0.7573 -0.51845,0.16829 -1.05524,0.25245 -1.61035,0.25245 -0.95835,0 -1.70723,-0.32041 -2.24663,-0.96121 -0.53417,-0.64727 -0.83267,-1.58581 -0.89551,-2.81563 h 6.64563 v -0.87382 c 0,-1.61817 -0.34563,-2.89654 -1.0369,-3.83508 -0.68604,-0.94501 -1.62082,-1.41752 -2.80437,-1.41752 z m 19.78764,0 c -0.61272,0 -1.15474,0.16182 -1.62606,0.48546 -0.46608,0.32362 -0.87194,0.81232 -1.21758,1.46606 v -1.68937 h -1.45323 v 10.87415 h 1.45323 v -6.14584 c 0,-1.06153 0.22519,-1.89974 0.67556,-2.51464 0.45037,-0.61492 1.06571,-0.92237 1.84601,-0.92237 0.64938,0 1.13641,0.25567 1.4611,0.76702 0.32469,0.51134 0.48703,1.2816 0.48703,2.31076 v 6.50507 h 1.44539 v -6.56332 c 0,-1.50168 -0.25924,-2.63763 -0.77769,-3.40789 -0.51845,-0.77672 -1.28304,-1.16509 -2.29376,-1.16509 z m 9.65423,0 c -1.3197,0 -2.3697,0.52429 -3.14999,1.57287 -0.77507,1.04211 -1.16259,2.45316 -1.16259,4.23315 0,1.72174 0.40847,3.08749 1.22542,4.09724 0.8222,1.00973 1.93504,1.5146 3.33853,1.5146 0.56034,0 1.11284,-0.0712 1.65749,-0.21359 0.54463,-0.1424 1.07617,-0.34953 1.59463,-0.62138 v -1.68938 c -0.51321,0.33658 -1.03167,0.58902 -1.55535,0.7573 -0.51847,0.16829 -1.05525,0.25245 -1.61036,0.25245 -0.95835,0 -1.70723,-0.32041 -2.24663,-0.96121 -0.53416,-0.64727 -0.83266,-1.58581 -0.89551,-2.81563 h 6.64564 v -0.87382 c 0,-1.61817 -0.34565,-2.89654 -1.03692,-3.83508 -0.68603,-0.94501 -1.62082,-1.41752 -2.80436,-1.41752 z m 19.20634,0 c -1.26209,0 -2.25187,0.50487 -2.96932,1.51462 -0.71221,1.00973 -1.06833,2.40785 -1.06833,4.19431 0,1.78 0.35612,3.1781 1.06833,4.19433 0.71745,1.00973 1.70723,1.5146 2.96932,1.5146 1.25686,0 2.24402,-0.50487 2.96147,-1.5146 0.71746,-1.01623 1.07618,-2.41433 1.07618,-4.19433 0,-1.78646 -0.35872,-3.18458 -1.07618,-4.19431 -0.71745,-1.00975 -1.70461,-1.51462 -2.96147,-1.51462 z m 9.39501,0 c -1.0788,0 -1.94812,0.50811 -2.60798,1.52433 -0.65985,1.01621 -0.98977,2.36578 -0.98977,4.04867 0,1.67644 0.32992,3.02277 0.98977,4.03898 0.65986,1.01622 1.52918,1.52432 2.60798,1.52432 0.64938,0 1.20711,-0.15858 1.67318,-0.47574 0.4661,-0.31716 0.84839,-0.79614 1.14689,-1.43694 v 0.88352 c 0,1.23629 -0.23566,2.15866 -0.70698,2.76709 -0.47132,0.61491 -1.18092,0.92235 -2.12881,0.92235 -0.42941,1e-5 -0.85098,-0.068 -1.26471,-0.20388 -0.41371,-0.13593 -0.83267,-0.34629 -1.25685,-0.63109 v 1.73792 c 0.42418,0.19419 0.86147,0.33658 1.31184,0.4272 0.45037,0.0971 0.92956,0.14564 1.43753,0.14564 1.37207,0 2.39065,-0.45309 3.05573,-1.35927 0.6651,-0.89971 0.99764,-2.27515 0.99764,-4.12636 v -9.52459 h -1.44539 v 1.65054 c -0.2985,-0.6408 -0.68079,-1.11978 -1.14689,-1.43694 -0.46607,-0.31717 -1.0238,-0.47575 -1.67318,-0.47575 z m 10.65185,0 c -1.26209,0 -2.25186,0.50487 -2.96931,1.51462 -0.71222,1.00973 -1.06833,2.40785 -1.06833,4.19431 0,1.78 0.35611,3.1781 1.06833,4.19433 0.71745,1.00973 1.70722,1.5146 2.96931,1.5146 1.25686,0 2.24402,-0.50487 2.96147,-1.5146 0.71746,-1.01623 1.07619,-2.41433 1.07619,-4.19433 0,-1.78646 -0.35873,-3.18458 -1.07619,-4.19431 -0.71745,-1.00975 -1.70461,-1.51462 -2.96147,-1.51462 z m -106.534311,0.26215 v 11.06833 c 0,0.99033 -0.0995,1.64084 -0.298504,1.95153 -0.199002,0.31716 -0.573441,0.47575 -1.123316,0.47575 h -0.384913 v 1.51461 h 0.549877 c 0.947879,0 1.633913,-0.31069 2.058104,-0.93207 0.429426,-0.62138 0.644137,-1.62465 0.644137,-3.00982 v -11.06833 z m 29.693241,0 v 10.87415 h 1.44539 v -10.87415 z m -6.354983,1.23304 c 0.764587,0 1.364211,0.37542 1.798882,1.12626 0.439893,0.74436 0.659853,1.77352 0.659853,3.08748 0,1.31396 -0.21996,2.34637 -0.659853,3.0972 -0.434671,0.74436 -1.034295,1.11654 -1.798882,1.11654 -0.764588,0 -1.366829,-0.37218 -1.806728,-1.11654 -0.434664,-0.75083 -0.651997,-1.78324 -0.651997,-3.0972 0,-1.31396 0.217333,-2.34312 0.651997,-3.08748 0.439899,-0.75084 1.04214,-1.12626 1.806728,-1.12626 z m 72.897693,0 c 0.78029,0 1.38516,0.35601 1.81459,1.06801 0.43466,0.71199 0.65199,1.71526 0.65199,3.0098 0,1.28808 -0.21733,2.28811 -0.65199,3.00011 -0.42943,0.71199 -1.0343,1.06799 -1.81459,1.06799 -0.77507,0 -1.37992,-0.356 -1.81459,-1.06799 -0.42942,-0.712 -0.64414,-1.71203 -0.64414,-3.00011 0,-1.29454 0.21472,-2.29781 0.64414,-3.0098 0.43467,-0.712 1.03952,-1.06801 1.81459,-1.06801 z m -102.66163,0.0195 c 0.769824,0 1.379924,0.37865 1.830297,1.13596 0.450373,0.75083 0.675561,1.77029 0.675561,3.05835 0,1.29455 -0.225188,2.31724 -0.675561,3.06808 -0.450373,0.75083 -1.060473,1.12625 -1.830297,1.12625 -0.780301,0 -1.395638,-0.37219 -1.846011,-1.11655 -0.445136,-0.75083 -0.667703,-1.77675 -0.667703,-3.07778 0,-1.30101 0.225185,-2.3237 0.675558,-3.06806 0.450377,-0.75083 1.063092,-1.12625 1.838156,-1.12625 z m 14.587393,0 c 0.712218,0 1.28304,0.29127 1.712467,0.87382 0.434663,0.58254 0.657234,1.36249 0.667706,2.33988 l -5.153112,0.01 c 0.07331,-1.0227 0.35087,-1.8156 0.832666,-2.37873 0.487034,-0.56312 1.13379,-0.84468 1.940273,-0.84468 z m 29.693237,0 c 0.71222,0 1.28304,0.29127 1.71247,0.87382 0.43466,0.58254 0.65724,1.36249 0.6677,2.33988 l -5.15311,0.01 c 0.0734,-1.0227 0.35087,-1.8156 0.83267,-2.37873 0.48703,-0.56312 1.13379,-0.84468 1.94027,-0.84468 z m 29.44188,0 c 0.71221,0 1.28304,0.29127 1.71246,0.87382 0.43466,0.58254 0.65723,1.36249 0.66771,2.33988 l -5.15311,0.01 c 0.0734,-1.0227 0.35086,-1.8156 0.83266,-2.37873 0.48703,-0.56312 1.13379,-0.84468 1.94028,-0.84468 z m 19.19062,0 c 0.76983,0 1.37993,0.37865 1.8303,1.13596 0.45038,0.75083 0.67556,1.77029 0.67556,3.05835 0,1.29455 -0.22518,2.31724 -0.67556,3.06808 -0.45037,0.75083 -1.06047,1.12625 -1.8303,1.12625 -0.7803,0 -1.39563,-0.37219 -1.84601,-1.11655 -0.44513,-0.75083 -0.6677,-1.77675 -0.6677,-3.07778 0,-1.30101 0.22519,-2.3237 0.67556,-3.06806 0.45037,-0.75083 1.0631,-1.12625 1.83815,-1.12625 z m 20.04686,0 c 0.76983,0 1.37993,0.37865 1.83031,1.13596 0.45037,0.75083 0.67556,1.77029 0.67556,3.05835 0,1.29455 -0.22519,2.31724 -0.67556,3.06808 -0.45038,0.75083 -1.06048,1.12625 -1.83031,1.12625 -0.78029,0 -1.39563,-0.37219 -1.846,-1.11655 -0.44513,-0.75083 -0.6677,-1.77675 -0.6677,-3.07778 0,-1.30101 0.22518,-2.3237 0.67555,-3.06806 0.45038,-0.75083 1.0631,-1.12625 1.83815,-1.12625 z"
       id="text961"
       inkscape:connector-curvature="0" />
  </g>
</svg>
